<?xml version="1.0" encoding="UTF-8"?>
<!DOCTYPE svg PUBLIC "-//W3C//DTD SVG 1.1//EN" "http://www.w3.org/Graphics/SVG/1.1/DTD/svg11.dtd">
<!-- Creator: CorelDRAW 2019 (64-Bit) -->
<svg xmlns="http://www.w3.org/2000/svg" xml:space="preserve" width="10.1575in" height="7.12598in" version="1.1" style="shape-rendering:geometricPrecision; text-rendering:geometricPrecision; image-rendering:optimizeQuality; fill-rule:evenodd; clip-rule:evenodd"
viewBox="0 0 10157.48 7125.98"
 xmlns:xlink="http://www.w3.org/1999/xlink"
 xmlns:xodm="http://www.corel.com/coreldraw/odm/2003">
 <defs>
  <style type="text/css">
   <![CDATA[
    .fil0 {fill:#FFCC29}
   ]]>
  </style>
 </defs>
 <g id="Capa_x0020_1">
  <metadata id="CorelCorpID_0Corel-Layer"/>
  <g id="_1364948240">
   <path class="fil0" d="M7555.89 2760.7c27.31,36.96 58.65,90.33 88.55,126.85l65.91 102.72c23.68,35.75 47.08,76.54 67.41,111.69 9.86,17.07 21.99,37.31 31,55 7.16,14.05 21.39,42.89 30.24,55.32 27.41,41.96 57.09,109.82 75.62,153.66 8.2,19.37 58.97,145.02 61.61,148 10.22,16.03 25.34,67.41 30.98,86.48 3.86,13.1 66.66,227.98 66.17,245.66 -0.15,5.2 0.41,2.41 -0.95,7.02 3.13,6.3 5.77,22.57 7.33,30.85l5.18 26.77c-0.19,5.39 0.38,1.62 -1.21,6.7 4.32,6.98 5.25,20.14 6.89,29.53 2.04,11.64 4.07,21.08 5.35,32.57l15.8 134.88c0.81,12.46 -0.84,35.36 1.74,44.91 -2.66,-8.9 -36.58,-181.61 -36.15,-183.26l-22.51 -87.27c-10.88,-21.07 -10.88,-48.42 -20.31,-66.76l-36.71 -112.45c-28.83,-89.06 -99.16,-233.43 -147.75,-324.06l-5.72 -17.56c-9.65,-11.56 -18.79,-31.64 -27.1,-45.89 -64.97,-111.35 -125.4,-206.41 -201.18,-313.04l-12.86 -20c-2.63,-6.74 -1.33,-2.95 -1.38,-6.2 -11.47,-10.58 -93.23,-122.35 -112.46,-146.76 -235.66,-299.26 -450.71,-502.98 -768.13,-740.99 -22.49,-16.86 -44.93,-34.71 -65.66,-50.85 -15.3,-11.91 -58.18,-42.73 -66.41,-53.85 -24.54,-5.05 -189.64,-161.12 -199.91,-171.62 -78.07,-79.8 -100.17,-108.4 -161.15,-190.07 -4.86,-6.52 -15.54,-21.49 -16.51,-29.7 -20.43,-22.81 -78.26,-133.2 -73.23,-154.99 -9.22,-11.07 -22.48,-72.22 -17.94,-82.22 -13.27,-24.23 0.78,-108.21 7.68,-135.39 236.8,-932.53 5.65,-279.94 264.64,334.83 103.96,246.8 804.15,713.68 1163.16,1199.5zm605.09 834.61c12.04,19.29 71.09,206.61 66.72,221.82 11.87,17.04 28.9,148.15 33.1,176.13 7.79,74.5 16.73,251.98 -0.44,324.13 -4.17,17.53 0.43,24.76 -9.9,45.67 -2.94,-13.92 -0.5,-37.96 -0.36,-54.61 0.17,-19.12 -0.47,-36.09 -0.84,-55.65 -1.26,-66.09 -13.34,-159.19 -23.54,-225.53l-21.09 -113.7c-12.11,-29.1 -16.36,-69.52 -26.36,-102.68 -4.12,-13.66 -29.57,-95.06 -28.56,-100.28 -15.02,-30.97 -25.57,-70.42 -37.26,-102.44 -24.53,-67.26 -101.97,-243.64 -137.24,-304.83 -20.28,-35.19 -38.37,-68.8 -56.92,-103 -19.01,-35.06 -43.05,-69.08 -65.19,-105.36 -43.32,-70.96 -92.69,-139.93 -142.06,-211.01 42.97,37.07 131.31,146.55 168.09,198.04 13.08,18.3 35.28,52.3 50.1,67.41 21.57,23.47 55.13,84.41 73.12,113.56 43.54,70.54 127.02,236.39 156.45,316.8l2.34 10.75c0.04,0.75 -0.06,1.76 -0.05,2.37 0.02,0.62 0,1.61 -0.12,2.4zm-2173.74 -2028.57c-12.42,-23.19 -29.37,-73.1 -35.72,-100.18 -0.26,-1.09 -1.42,-7.5 -1.43,-7.77 -0.33,-7.19 -0.54,-3.09 0.81,-8.2 -8.51,-11.33 -11.15,-59.81 -12.33,-74.3 -1.11,-56.24 5.28,-98.67 21.92,-146.94 12.36,-35.91 45.09,-105.56 87.81,-134.75 -13.43,27.76 -26.7,54.14 -34.85,80.42 -8.09,26.1 -14.26,57.55 -16.07,86.09 -6.68,105.48 19.54,160.6 19.52,177.22 16.28,37.89 26.43,73.89 48.33,114.52 47.57,97.55 124.3,187.07 201.46,274.03 36.45,41.08 80.2,83.96 119.85,121.82 20.41,19.5 39.63,37.87 59.76,57.26 18.4,17.73 45.27,39.86 60.91,59.09 -12.45,-5.31 -47.93,-24.08 -57.47,-33.12 -8.91,-0.91 -8.49,-2.08 -16.58,-7.04 -6.22,-3.81 -11.72,-7.42 -17.27,-10.91 -140.89,-88.77 -248.24,-180.09 -346.1,-307.01 -19.7,-25.54 -82.35,-119.56 -82.55,-140.24z"/>
   <path class="fil0" d="M9826.55 4481.94c271.58,985.82 -1899.69,-1757.3 -2093.83,-2020.67 -421.74,-571.91 -1537.72,-805.37 -1255.63,-1992.11 12.72,-53.46 32.9,-103.08 59.12,-149.33l2798.4 0c2.38,5.19 5,10.33 7.07,15.58 752.62,1907.97 -15.89,2339.75 484.87,4146.54z"/>
  </g>
 </g>
</svg>
