<?xml version="1.0" encoding="UTF-8"?>
<!DOCTYPE svg PUBLIC "-//W3C//DTD SVG 1.1//EN" "http://www.w3.org/Graphics/SVG/1.1/DTD/svg11.dtd">
<!-- Creator: CorelDRAW 2019 (64-Bit) -->
<svg xmlns="http://www.w3.org/2000/svg" xml:space="preserve" width="10.1575in" height="7.12598in" version="1.1" style="shape-rendering:geometricPrecision; text-rendering:geometricPrecision; image-rendering:optimizeQuality; fill-rule:evenodd; clip-rule:evenodd"
viewBox="0 0 10157.48 7125.98"
 xmlns:xlink="http://www.w3.org/1999/xlink"
 xmlns:xodm="http://www.corel.com/coreldraw/odm/2003">
 <defs>
  <style type="text/css">
   <![CDATA[
    .fil0 {fill:#FFC51B}
   ]]>
  </style>
 </defs>
 <g id="Capa_x0020_1">
  <metadata id="CorelCorpID_0Corel-Layer"/>
  <path class="fil0" d="M7846 3177.87c91.59,-293.52 441.77,-766.54 615.06,-979.62 372.37,-457.84 835.47,-856.93 1348.97,-1184.86l0 -643.87c-146.49,0.35 -292.92,0.65 -439.2,0.65 -839.36,-0.01 -1900.26,-98.5 -2304.24,376.48 -420.22,494.09 -648.37,785.85 -928.87,1360.81 -225.08,461.33 1257.62,853.86 1708.27,1070.41z"/>
  <path class="fil0" d="M9810.03 1205.8c-1429.19,1090.77 -2604.51,2573.61 -1718.24,4102.96 70.89,-78.28 276.63,-637.41 399.09,-873.17 280.92,-540.79 755.66,-1110.35 1319.15,-1548.16l0 -1681.64z"/>
 </g>
</svg>
