<?xml version="1.0" encoding="UTF-8"?>
<!DOCTYPE svg PUBLIC "-//W3C//DTD SVG 1.1//EN" "http://www.w3.org/Graphics/SVG/1.1/DTD/svg11.dtd">
<!-- Creator: CorelDRAW 2019 (64-Bit) -->
<svg xmlns="http://www.w3.org/2000/svg" xml:space="preserve" width="10.1575in" height="7.12598in" version="1.1" style="shape-rendering:geometricPrecision; text-rendering:geometricPrecision; image-rendering:optimizeQuality; fill-rule:evenodd; clip-rule:evenodd"
viewBox="0 0 10157.48 7125.98"
 xmlns:xlink="http://www.w3.org/1999/xlink"
 xmlns:xodm="http://www.corel.com/coreldraw/odm/2003">
 <defs>
  <style type="text/css">
   <![CDATA[
    .fil0 {fill:#FFC51B}
   ]]>
  </style>
 </defs>
 <g id="Capa_x0020_1">
  <metadata id="CorelCorpID_0Corel-Layer"/>
  <path class="fil0" d="M8036.69 353.72c21,38.7 38.9,71.94 53.02,98.69 68.8,130.34 207.07,377.01 242.74,515.44 -107.65,-71.61 -297.99,-385.26 -437.77,-614.13l-419.74 0c110.22,101.91 200.91,185.15 253.91,234.12 103.9,96.02 395.2,348.96 465.56,465.43 -103.12,-35.36 -240.41,-140.65 -326.74,-209.21 -43.67,-34.68 -58.04,-51.32 -109.83,-88.33 -107.98,-77.17 -312.61,-236.73 -530.61,-402.01l-980.5 0c402.3,162.41 1711.57,720.12 1998.01,888.27 -571.4,-75.39 -2093.39,-697.63 -2493.3,-690.7 -39.69,198.28 -97.57,404.44 -97.75,613.95l2510.06 176.66c-427.76,107.5 -1907.41,-76.47 -2131.69,38.35 -5.45,111.38 116.48,637.76 148.25,728.96 64,76.88 824.69,-298.82 958.43,-336.67 211.24,-59.78 670.4,-223.84 880.76,-254.25 208.24,-30.13 135.48,-40.52 178,23.33 -46.09,-13.57 -2075.1,798.54 -2416.54,1012.64 12.28,116.63 267.83,515.85 313.69,579.48 356.19,-126.8 1841.8,-1430.6 2170.59,-1536.9 -319.92,414.34 -1581.51,1204.18 -1740.22,1504.04 51.64,81.08 237.13,218.32 321.23,284.64 68.05,53.65 135.55,148.44 222.15,169.35 133.2,-101.69 457.29,-673.29 630.67,-914.8 168.43,-234.64 487.8,-768.71 638.02,-911.43 -143.63,656.5 -1117.81,1621.09 -1218.95,2216.47 142.44,74.3 548.27,353.56 710.96,346.45 159.11,-254.85 458.02,-2194.02 646.98,-2507.2 20.44,377.9 -91.89,856.75 -119.16,1238.81l-31.36 329.01c-1.05,8.88 -2.11,15.45 -3.26,24.28 -37.25,289.97 -110.94,1518.27 -108.43,1822.11l810.81 -7.57c63.57,-388.63 -457.09,-3034.77 -418.46,-3510.83 62.79,130.53 503.45,1980.15 542.7,2161.9 37.15,172.11 97.15,580.47 201.59,731.42 80.03,-5.7 287.91,-74.26 453.76,-143.59l0 -532.86c-259.12,-524.33 -486.02,-1027.37 -754.29,-1555.35 -71.61,-140.93 -287.51,-546.13 -308.54,-661.96 136.79,164.85 673.09,1003.63 1062.82,1588.51l0 -729.17 -1032.82 -996.53c318.68,195.83 689.21,470.74 1032.82,734.18l0 -381.17 -921.46 -410.93c118.93,6.41 462.61,108.55 594.45,149.78 68.94,21.57 185.13,58.12 327.01,102.19l0 -296.1c-357.6,-15.77 -672.85,-37.8 -820.29,-80.63 74.85,-32.7 425.79,-63.2 820.29,-89.8l0 -284.18 -949.06 266.96c175.04,-94.1 545.82,-256.19 949.06,-430.3l0 -408.1c-392.41,299.28 -774.87,590.33 -978.24,709.07 107.52,-160.22 577.61,-587.38 782.35,-769.77l-412.13 0c-74.27,116.05 -137.41,214.48 -180.63,279.28 -35.43,53.11 -41.93,69.27 -74.64,122.27l-55.84 82.37c-64.91,87.59 -163.35,193.06 -196.37,283.36 114.92,-259.52 237.56,-515.88 369.33,-767.28l-269.07 0c-52.23,229.06 -100.82,429.09 -141.77,564.78 -19.68,65.17 -34.42,95.02 -43.22,150.02l73.46 -714.79 -233.06 0c29.33,240.75 48.89,473.64 45.95,686.55 -2.75,-62.95 -135.43,-551.53 -169.87,-686.55l-283.85 0z"/>
 </g>
</svg>
