<?xml version="1.0" encoding="UTF-8"?>
<!DOCTYPE svg PUBLIC "-//W3C//DTD SVG 1.1//EN" "http://www.w3.org/Graphics/SVG/1.1/DTD/svg11.dtd">
<!-- Creator: CorelDRAW 2019 (64-Bit) -->
<svg xmlns="http://www.w3.org/2000/svg" xml:space="preserve" width="2.89606in" height="1.46243in" version="1.1" style="shape-rendering:geometricPrecision; text-rendering:geometricPrecision; image-rendering:optimizeQuality; fill-rule:evenodd; clip-rule:evenodd"
viewBox="0 0 1101.3 556.13"
 xmlns:xlink="http://www.w3.org/1999/xlink"
 xmlns:xodm="http://www.corel.com/coreldraw/odm/2003">
 <defs>
  <style type="text/css">
   <![CDATA[
    .fil0 {fill:#FFCC00}
    .fil1 {fill:black;fill-rule:nonzero}
   ]]>
  </style>
 </defs>
 <g id="Capa_x0020_1">
  <metadata id="CorelCorpID_0Corel-Layer"/>
  <path class="fil0" d="M114.48 199.74l3.28 3.13c0.07,0.08 0.19,0.22 0.25,0.29l0.43 0.59c0.04,0.05 0.14,0.19 0.19,0.29 2.43,1.22 3.93,2.86 5.99,4.37 2.08,1.53 3.95,2.83 6.23,3.77 7.1,2.08 8.21,5.06 18.3,4.78 7.05,-0.19 12.4,-3.11 17.15,-6.16 1.8,-1.22 3.39,-2.96 4.85,-4.86 1.52,-1.97 2.38,-4.4 4.27,-5.95 -0.14,-1.72 -0.34,-0.78 0.58,-1.13 0.46,-6.05 6.87,-10.42 5.92,-43.23 -0.23,-8.1 -3.05,-38.22 -5.71,-43.85 -6.92,-2.27 -1.45,-0.67 -7.76,-4.4l-2.27 -2.22 -1.15 -1.91c-6.71,-8.57 -0.51,-25.52 13.07,-25.53 13.87,-0.01 19.42,16.21 13.2,25.01l-1.19 2.06c-0.23,1.69 0.38,0.71 -0.82,1.75 -0.68,0.59 -1.1,0.43 -2.06,0.79l0.66 4.09c-0.36,9.42 12.72,49.92 20.66,64.56 2.22,4.1 5.3,9.65 8.09,13.17 1.29,1.62 2.58,2.49 3.19,4.26l4.48 3.78c0.04,0.05 0.14,0.18 0.2,0.28 4.28,1.6 7.73,5.44 16.66,3.35 6.72,-1.57 9.92,-5.98 12.98,-7.9 0.44,-1.9 1.34,-2.38 2.59,-4.28 1.04,-1.59 1.69,-3.37 3.23,-4.58 0.13,-1.71 3.76,-10.39 4.57,-12.97 7.64,-24.34 7.97,-58.6 7.83,-84.14 -0.07,-11.78 -1.46,-23.35 -1.77,-34.97 -1.1,-0.9 -5.22,-2.28 -6.68,-2.75 -1.82,-0.85 -6.54,-4.27 -7.26,-5.82 -1.64,-1.07 -2.71,-1.74 -3.62,-3.86l-1.29 -2.03c-8.56,-17.17 2.79,-35.67 18.74,-37.35 5.81,-0.61 10.56,0.59 15.13,3.53 0.36,0.23 0.72,0.49 1.07,0.72 0.11,0.07 0.25,0.17 0.36,0.24 5.1,3.34 8.49,9.28 9.68,15.21 1.15,5.73 0.26,9.29 -0.81,14.46l-1.86 3.29c-0.84,2.54 -0.59,2.08 -2.45,3.32 -0.67,1.77 0.28,0.4 -1.28,2.17 -0.36,0.4 -1.36,1.13 -1.9,1.61 -1.63,1.45 -1.8,2.44 -4.05,3.3 -1.81,0.89 -2.96,2.27 -5.46,2.28 -0.03,23.67 4.42,57.69 8.69,78.99 0.57,2.82 1.3,5.66 1.94,8.46 2.5,10.99 5.07,19.67 9.37,30.06l6.62 13.19c1.63,1.09 1.05,0.75 2.2,2.22 0.82,1.04 1.15,1.49 1.83,2.28 1.22,1.41 3.57,2.92 3.94,4.31 3.85,1.88 6.89,4.64 12.52,5.22 7.55,0.78 8.84,-1.9 13.79,-3.5l0.62 -0.85c0.06,-0.06 0.19,-0.21 0.25,-0.28l4.5 -3.92c0.59,-2.63 3.39,-5.49 4.97,-8.46 8.21,-15.48 12.94,-37.67 15.53,-54.96 0.79,-5.31 3.31,-20.59 2.71,-25.44 -0.29,-1.5 -0.01,-0.71 -1.05,-1.77 -0.1,-0.1 -0.92,-0.74 -1.03,-0.85 -1.07,-1.02 -0.07,0.38 -1.05,-1.13l-1.86 -2.08 -0.91 -2.45c-3.46,-3.2 -2.77,-17.9 8.57,-22.32 1.44,-0.56 2.84,-0.89 4.51,-0.98 3.33,-0.19 6.69,0.9 8.47,1.86 7.63,4.15 9.44,12.48 7.09,21.3l-0.83 1.03c-0.95,1.98 -0.69,1.6 -2.26,2.8 -0.07,0.17 -0.22,0.21 -0.28,0.47 -0.06,0.25 -0.21,0.35 -0.28,0.45 -0.67,0.84 0.02,0.11 -0.94,1.06 -0.68,0.67 -0.54,0.33 -1.51,1.39 -2.22,2.44 -1.22,1.93 -4.17,2.99 -1.63,11.43 1.36,39.61 3.75,53.15l6.11 22.68c1.72,1.48 2.5,4.28 3.71,6.47 1.24,2.25 3.36,4.51 3.88,6.57 2.77,1.78 4.35,4.07 6.9,6.06 6.92,2.22 14.33,9.26 29.3,0 2.32,-1.43 1.67,-1.49 3.86,-2.34 1.35,-0.82 3.27,-2.67 4.27,-3.64 0.72,-0.7 1.38,-1.34 2.06,-2.06 1.56,-1.65 0.78,-1.36 2.71,-2.39 0.2,-0.91 -0.06,-0.54 0.65,-1.4 0.79,-0.95 1.16,-0.97 1.78,-1.37 0.48,-1.83 0.47,-1.34 1.93,-3.18 9.08,-11.37 28.69,-49.47 29.31,-58.22 -0.14,-0.91 -1.21,-0.88 -2,-2.38l-0.59 -1.68c-6.67,-5.99 -3.32,-24.73 10.6,-26.05 16.36,-1.55 20.5,16.91 15.86,23.48 -0.61,1.93 -0.19,1.07 -1.36,2.72 -1.07,2.18 0.16,0.81 -1.95,2.15 -1.72,1.09 -1.14,-0.13 -2.13,1.6 -0.04,0.06 -0.09,0.24 -0.13,0.3 -1.74,3.04 -2.98,2.64 -4.34,2.77l-6.16 0.24 -20.44 55.16 -1.22 3.55 -3.59 10.41c-1.08,5.73 -5.14,11.78 -5.45,16.99 10.17,-1.61 23.89,-2.12 34.49,-2.45 25.4,-0.81 46.86,-1 72.19,0.09 10.01,0.43 23.57,2.34 33.77,2.31l26.72 2.79c9.38,0.85 19.69,2.41 28.59,3.72 4.32,0.64 9.49,1.33 13.84,2.18 3.45,0.68 10.49,2.15 13.82,2.34 10.97,1.06 27.11,5.12 37.46,7.85 4.58,1.2 34,9.39 34.86,9.35 4.16,0.45 15.58,4.7 19.82,6.27 2.91,1.08 50.62,18.93 53.92,21.3 0.97,0.7 0.5,0.25 1.23,1.06 1.54,0.32 4.92,2.01 6.66,2.83l5.65 2.65c1,0.73 0.35,0.15 1.14,1.06 1.8,0.22 4.4,1.77 6.37,2.73 2.44,1.19 4.45,2.08 6.78,3.37l27.37 14.97c2.46,1.49 6.63,4.72 8.73,5.55 -1.98,-0.73 -38.52,-17.72 -38.79,-18l-19.05 -7.72c-5.19,-0.99 -10.39,-4.54 -14.91,-5.42l-25.38 -8.72c-20.08,-6.95 -55.2,-14.44 -77.73,-18.43l-3.96 -1.36c-3.25,0.04 -8.07,-1.1 -11.68,-1.62 -28.26,-4.06 -52.92,-6.74 -81.46,-8.46l-5.21 -0.54c-1.57,-0.46 -0.71,-0.17 -1.33,-0.58 -3.26,0.46 -33.43,-0.97 -40.17,-1.07 -82.6,-1.16 -144.78,6.78 -224.65,26.63 -5.66,1.41 -11.5,2.68 -16.83,3.9 -3.93,0.9 -14.47,3.75 -17.48,3.63 -3.64,3.27 -51.31,9.41 -54.43,9.69 -23.69,2.12 -31.53,1.94 -53.71,1.1 -1.77,-0.07 -5.78,-0.3 -7.45,-1.21 -6.56,0.31 -33.86,-4.77 -37.45,-8.4 -3.11,0.04 -16.18,-5.78 -17.59,-7.8 -6.05,-1.02 -20.49,-14.16 -24.9,-18.79 -6.19,-6.49 -13.06,-18.44 -17.15,-26.61l-14.53 -29.27c-3.32,-6.54 -12.92,-23.97 -15.06,-29.22 -3.33,0.29 -5.89,-0.35 -7.79,-0.16 -2.79,-0.68 -2.13,-1.07 -3.9,-2.36 -0.76,-0.55 -1.08,-0.57 -1.82,-1.06l-1.88 -1.69c-0.8,-1.66 0.4,0.57 -0.55,-0.75l-0.48 -0.67c-0.07,-0.1 -0.21,-0.31 -0.26,-0.39 -0.06,-0.09 -0.19,-0.26 -0.27,-0.41 -7.01,-10.17 0.69,-25.24 13.24,-25.45 5.59,-0.09 10.52,2.69 13.59,7.74 2.81,4.64 3.22,12 -0.01,16.86 -0.8,1.71 -0.57,1.12 -1.55,2.33 -0.09,0.17 -0.25,0.23 -0.28,0.5 -0.03,0.28 -0.38,0.78 -0.41,0.91 -0.19,0.66 -0.21,0 -0.09,1.03 1.28,5.18 12.52,21.82 16.27,27.71 6.84,10.74 19.65,24.38 20.03,24.97zm675.03 18.43c4.98,0.58 47.03,15.44 49.45,18.12 4.53,0.31 31.32,14.6 37.1,17.56 15.01,8.42 49.73,30.02 61.58,42.12 2.88,2.94 4.75,3.14 7.6,7.51 -2.97,-1.34 -7.27,-4.84 -10.42,-7.03 -3.62,-2.51 -6.91,-4.61 -10.67,-7.09 -12.7,-8.37 -31.72,-18.52 -45.44,-25.5l-23.92 -11.38c-6.85,-1.84 -15,-6.4 -22.4,-9.11 -3.05,-1.11 -21.3,-7.61 -22.18,-8.45 -7.53,-1.62 -16.18,-5.05 -23.54,-7.34 -15.46,-4.81 -57.44,-15.31 -72.92,-17.61 -8.9,-1.32 -17.27,-2.79 -25.79,-4.27 -8.74,-1.51 -17.83,-2.08 -27.14,-3.25 -18.22,-2.28 -36.71,-3.34 -55.61,-4.67 11.73,-2.06 42.18,-1.97 55.98,-1.17 4.91,0.28 13.79,1.15 18.28,0.74 6.82,-0.4 22.06,2.14 29.57,3.05 18.16,2.19 58.79,10.37 77.29,16.1l2.3 1.02c0.15,0.09 0.33,0.24 0.44,0.31 0.12,0.08 0.31,0.21 0.44,0.33zm-622.75 84.22c-5.76,-1.02 -17.1,-4.79 -22.94,-7.29 -0.24,-0.1 -1.58,-0.75 -1.63,-0.78 -1.4,-0.88 -0.65,-0.31 -1.47,-1.19 -3.08,-0.11 -12.59,-5.98 -15.47,-7.67 -10.81,-7.12 -18.18,-13.65 -25.55,-22.57 -5.48,-6.63 -15.15,-20.9 -16.04,-31.51 3.81,5.75 7.38,11.29 11.49,16 4.08,4.68 9.39,9.75 14.62,13.74 19.33,14.75 32.66,17.71 35.82,19.87 8.98,2.31 16.93,5.36 27.04,7.13 23.73,5.05 49.12,4.4 74.07,3.36 11.79,-0.5 24.71,-1.93 36.23,-3.35 5.93,-0.73 11.52,-1.42 17.4,-2.12 5.38,-0.64 12.51,-2.06 17.88,-2.07 -2.37,1.3 -9.8,4.54 -12.57,4.89 -1.14,1.31 -1.32,1.09 -3.15,1.74 -1.4,0.5 -2.69,0.91 -3.96,1.34 -32.24,11 -61.31,16.31 -96.12,15.48 -7.01,-0.16 -31.71,-2.35 -35.67,-5z"/>
  <polygon class="fil1" points="-0,491.96 -0,306.31 36.44,306.31 36.44,387.12 87.47,306.31 131.37,306.31 73.11,394.63 135.95,491.96 91.44,491.96 36.44,406.43 36.44,491.96 "/>
  <polygon class="fil1" points="146.5,491.96 146.5,332.84 178.11,332.84 178.11,491.96 "/>
  <polygon class="fil1" points="208.97,491.96 208.97,327.67 211.99,327.67 294.45,420.52 294.45,332.84 323.63,332.84 323.63,498.02 320.89,498.02 238.15,405.17 238.15,491.96 "/>
  <path class="fil1" d="M487.58 388.91l0 90.24c-10.37,6.25 -20.48,10.93 -30.3,14.07 -9.86,3.19 -19.39,4.76 -28.62,4.76 -23.53,0 -43.03,-9.31 -58.56,-27.97 -15.53,-18.66 -23.28,-42.22 -23.28,-70.62 0,-28.71 7.86,-52.44 23.61,-71.19 15.75,-18.79 35.64,-28.19 59.76,-28.19 9.09,0 17.75,1.49 26.01,4.5 8.22,2.97 16.15,7.52 23.75,13.55l-3.96 46.45c-7.17,-8.7 -14.29,-15.08 -21.39,-19.1 -7.13,-4.06 -14.59,-6.08 -22.4,-6.08 -13.86,0 -25.32,5.55 -34.41,16.69 -9.09,11.14 -13.64,25.08 -13.64,41.78 0,17.61 4.4,31.94 13.17,43.09 8.77,11.14 20.08,16.69 33.9,16.69 3.2,0 6.44,-0.35 9.71,-1 3.27,-0.7 6.66,-1.66 10.22,-2.97l0 -26.96 -29.24 0 0 -37.76 65.69 0z"/>
  <path class="fil1" d="M613.47 383.18c-5.74,-7.08 -11.54,-12.32 -17.4,-15.77 -5.89,-3.41 -12.07,-5.13 -18.52,-5.13 -11.19,0 -20.36,4.65 -27.47,13.94 -7.14,9.29 -10.69,21.24 -10.69,35.77 0,14.57 3.52,26.37 10.6,35.4 7.05,9.03 16.24,13.56 27.59,13.56 6.7,0 13.38,-1.69 20.05,-5.06 6.67,-3.37 13.31,-8.43 19.95,-15.17l-2.03 42.25c-5.67,4.61 -11.85,8.13 -18.58,10.53 -6.73,2.43 -13.72,3.63 -20.98,3.63 -7.79,0 -15.24,-1.46 -22.41,-4.38 -7.14,-2.92 -13.75,-7.27 -19.77,-12.96 -8.54,-8.05 -15.06,-17.87 -19.61,-29.48 -4.52,-11.57 -6.8,-24.23 -6.8,-37.91 0,-11.8 1.68,-22.85 5.02,-33.15 3.37,-10.3 8.23,-19.44 14.62,-27.34 6.45,-7.9 13.9,-13.93 22.38,-18.17 8.45,-4.2 17.36,-6.29 26.75,-6.29 7.45,0 14.53,1.24 21.29,3.75 6.76,2.47 13.22,6.26 19.36,11.31l-3.37 40.68z"/>
  <path class="fil1" d="M662.45 412.4c0,13.82 3.37,25.43 10.1,34.76 6.73,9.33 15.03,14.01 24.88,14.01 9.91,0 18.24,-4.64 24.94,-13.93 6.7,-9.33 10.04,-20.94 10.04,-34.84 0,-13.97 -3.34,-25.66 -10.04,-34.99 -6.7,-9.33 -15.03,-14.01 -24.94,-14.01 -9.85,0 -18.15,4.68 -24.88,14.01 -6.73,9.33 -10.1,21.01 -10.1,34.99zm-32.55 0c0,-11.8 1.68,-22.81 5.08,-33.08 3.37,-10.3 8.35,-19.48 14.93,-27.61 6.2,-7.75 13.44,-13.71 21.67,-17.83 8.2,-4.16 16.84,-6.22 25.85,-6.22 9.01,0 17.65,2.1 25.91,6.26 8.26,4.16 15.59,10.19 21.98,18.02 6.45,7.83 11.35,16.86 14.65,27.16 3.34,10.26 4.99,21.39 4.99,33.3 0,9.96 -1.15,19.33 -3.46,28.09 -2.34,8.77 -5.77,16.78 -10.35,24.05 -6.45,10.3 -14.37,18.32 -23.79,24.01 -9.41,5.73 -19.39,8.58 -29.93,8.58 -8.95,0 -17.52,-2.1 -25.72,-6.26 -8.2,-4.16 -15.46,-10.19 -21.79,-18.02 -6.58,-8.09 -11.57,-17.27 -14.93,-27.49 -3.4,-10.19 -5.08,-21.2 -5.08,-32.96z"/>
  <path class="fil1" d="M941.2 507.8c2.61,-20.67 18.77,-242.28 29.77,-218.15 11,24.13 33.32,91.72 49.97,137.58 15.71,-45.86 41.14,-185.68 47.14,-137.58 11.07,88.83 22.15,177.65 33.22,266.48l-33.18 -40.44 -11.27 -104.38 -35.54 104.25 -2.12 0 -38.16 -105.69 -11.63 97.93 -28.21 0z"/>
  <polygon class="fil1" points="770.34,502.2 797.84,327.67 800.11,327.67 850.09,437.74 897.22,327.67 899.59,327.67 927.28,502.2 897.22,502.2 886,425 850.46,508.41 848.34,508.41 810.18,423.85 798.55,502.2 "/>
 </g>
</svg>
